<svg id="visual" viewBox="0 0 1400 900" width="1400" height="900" xmlns="http://www.w3.org/2000/svg" xmlns:xlink="http://www.w3.org/1999/xlink" version="1.1"><rect x="0" y="0" width="1400" height="900" fill="#000000"></rect><defs><linearGradient id="grad1_0" x1="35.7%" y1="0%" x2="100%" y2="100%"><stop offset="18.888888888888886%" stop-color="#000000" stop-opacity="1"></stop><stop offset="81.11111111111111%" stop-color="#000000" stop-opacity="1"></stop></linearGradient></defs><defs><linearGradient id="grad2_0" x1="0%" y1="0%" x2="64.3%" y2="100%"><stop offset="18.888888888888886%" stop-color="#000000" stop-opacity="1"></stop><stop offset="81.11111111111111%" stop-color="#000000" stop-opacity="1"></stop></linearGradient></defs><g transform="translate(1400, 0)"><path d="M0 457.7C-73.3 434.8 -146.6 412 -217.5 376.7C-288.4 341.4 -356.8 293.7 -396.4 228.8C-436 164 -446.8 82 -457.7 0L0 0Z" fill="#3dfc5f"></path></g><g transform="translate(0, 900)"><path d="M0 -457.7C81.2 -446.4 162.4 -435.1 228.8 -396.4C295.3 -357.7 347.1 -291.6 382.8 -221C418.5 -150.4 438.1 -75.2 457.7 0L0 0Z" fill="#3dfc5f"></path></g></svg>